<svg height="800" width="3500" xmlns="http://www.w3.org/2000/svg"><style> polyline {fill:none; stroke:black; stroke-width:5; stroke-linecap:round; stroke-linejoin:round; }</style><g><polyline points="338 184 338 183 338 183 338 183 338 182 337 181 337 181 336 180 334 179 332 178 329 178 326 178 324 178 321 178 317 178 314 178 309 179 304 181 299 183 294 185 288 188 283 192 278 197 274 204 269 211 266 218 263 226 261 235 261 243 261 250 261 257 264 263 267 269 271 274 276 277 282 281 288 283 294 285 298 286 302 286 305 286 308 285 310 283 312 281 313 278 314 275 315 272 316 269 316 266 317 264 317 263 317 261 317 261 317 260 317 259 316 258 315 257 314 257 314 257 314 257 314 257 314 257 314 257 314 257 313 257 313 257 313 257 314 256 315 256 318 255 322 253 325 252 329 252 331 251 334 251 335 251 336 251 337 251 337 251 337 251 337 251 337 251"></polyline><polyline points="362 261 361 260 360 259 358 258 357 256 355 254 353 253 351 252 349 250 346 249 345 249 342 248 340 248 338 249 334 251 332 253 329 256 327 260 326 264 325 269 325 273 325 278 326 282 328 285 330 288 333 290 337 292 339 292 342 292 345 292 347 292 351 290 354 288 357 286 359 283 361 280 362 277 362 274 363 271 363 268 363 266 363 264 363 263 363 262 362 261 362 260 362 260 362 260 364 264 367 268 370 273 373 277 375 280 377 281 379 283 381 284 383 285 385 286 387 286 388 286 390 286"></polyline><polyline points="390 250 390 253 390 258 391 262 392 267 392 270 393 273 393 274 393 275 393 275 393 273 394 270 394 266 394 262 394 257 395 253 395 251 396 249 396 249 396 249 396 249 398 249 399 250 402 253 404 256 405 259 407 262 408 265 409 267 410 268 410 269 410 269 410 267 411 265 412 261 413 257 414 252 415 247 417 243 418 240 418 239 419 239 420 239 421 239 422 240 424 242 426 246 428 251 429 256 431 261 432 267 433 271 434 274 434 275 434 277 435 277"></polyline><polyline points="449 271 450 271 452 270 454 269 455 268 458 266 460 264 462 262 464 259 465 255 466 252 466 250 466 248 466 247 465 246 464 245 462 245 460 245 457 247 454 249 452 251 450 254 448 257 446 260 445 263 445 266 445 268 445 270 445 271 447 274 449 276 452 278 456 280 460 282 465 283 469 285 473 285 477 285 481 285 484 284 487 284 488 283 489 283 489 283 489 283"></polyline><polyline points="536 189 536 189 536 188 536 187 536 186 535 185 533 184 531 184 528 184 524 185 520 187 511 195 507 200 503 206 500 213 498 220 497 228 497 235 497 243 499 250 501 255 503 259 507 263 511 266 516 269 523 272 530 273 537 273 543 273 549 271 554 269 559 266 563 262 566 257 569 251 571 244 572 238 572 231 571 225 570 219 568 213 565 208 563 204 560 201 559 198 557 196 555 195 553 194 551 192 549 191 547 191 546 190 545 190 545 190 545 190 544 190 544 190"></polyline><polyline points="593 181 592 181 591 181 590 181 589 181 588 181 587 182 586 184 586 186 586 189 586 193 586 197 586 203 585 209 585 216 585 224 585 233 585 241 585 249 585 257 586 263 586 269 587 273 588 276 588 279 589 280 589 280 589 280 589 280 589 280 589 280 590 280 590 278 591 276 592 275 592 273 593 272 594 271 594 270 595 270 597 270 599 270 601 270 604 271 606 273 608 276 609 279 610 283 610 287 610 291 609 294 606 297 604 298 601 299 597 299 593 299 588 299 583 298 578 297 575 296 574 295 573 295 573 295 573 294 574 293"></polyline><polyline points="632 260 632 262 632 266 632 270 634 276 635 283 637 291 639 300 640 310 640 320 640 330 639 339 636 347 632 353 626 358 619 361 610 362 601 362 592 360 584 357 577 353 571 350 568 348 565 345 563 343 562 340 561 337"></polyline><polyline points="635 215 634 214 634 214 634 214 634 216 634 218 633 221 633 224 633 227 633 229 633 230 633 231 633 231"></polyline><polyline points="645 265 647 265 649 265 651 265 654 265 658 264 661 263 664 262 668 260 671 258 673 256 675 254 676 252 677 250 677 249 676 247 675 246 673 244 671 244 669 243 667 243 665 243 662 244 660 245 658 247 656 250 654 253 652 257 651 262 650 268 650 274 650 279 651 284 653 289 655 292 657 294 660 295 664 296 669 296 674 296 680 294 685 292 689 291 692 289 694 289 695 288"></polyline><polyline points="734 247 733 246 732 246 729 246 727 246 724 248 720 252 717 256 714 261 712 266 711 272 711 277 712 281 713 284 716 286 720 287 724 288 729 288 734 288 738 287 742 285 746 283 749 281 751 280"></polyline><polyline points="767 195 766 195 765 198 764 199 764 203 764 206 764 211 764 217 764 225 765 232 766 240 766 247 767 255 768 263 769 269 770 275 771 279 771 282 772 284 772 285 772 285 772 285 772 285 770 285"></polyline><polyline points="752 240 756 240 761 240 768 241 773 241 779 242 783 242 786 242 788 243 789 243 789 243 789 243"></polyline><polyline points="317 343 317 343 317 342 317 342 317 342 317 342 317 342 317 343 317 346 317 350 318 357 319 365 320 375 321 384 321 394 322 403 322 411 323 417 324 423 324 427 324 430 325 431 325 432 325 432 325 432 325 432 325 432 325 432 325 432 325 432 325 432 325 432 325 432 325 432 325 432 325 432 325 432 326 433 327 433 329 434 332 434 335 435 339 435 343 436 349 436 355 437 361 437 368 438 373 438 378 439 382 439 384 439 385 440 386 440 387 440 387 440 387 440 387 440 387 440 387 440 387 440 387 440 388 440 388 440 388 440 388 440 388 440 389 440 389 440 389 440 389 440 389 440 389 440 389 439 389 438 387 436 385 433 382 430 378 427 376 425 373 422 371 421 369 419 367 418 366 417 366 417 366 417 366 417 366 417 366 417 366 416 366 416 366 416 366 416 367 416 368 417 371 417 374 418 376 419 379 420 381 421 383 422 385 423 387 424 388 425 389 426 391 428 392 431 393 433 394 435 395 437 395 439 395 440 395 441 395 443 395 444 393 447 391 450 389 453 387 456 385 458 384 460 383 460 381 461 379 461 376 461 373 461 369 461 366 462 363 463 362 464 361 464 360 464 360 464 360 464 360 464 360 464 359 465 358 465"></polyline><polyline points="484 402 484 401 484 400 483 400 483 399 481 398 480 397 477 396 475 396 472 396 468 396 464 398 460 401 455 404 450 408 446 413 442 418 440 422 438 426 437 431 437 436 437 443 439 450 443 456 447 462 452 467 457 472 464 475 470 478 476 479 483 480 489 480 495 480 500 478 504 477 507 476 509 475 510 474 511 472 511 471 511 469 511 468"></polyline><polyline points="524 435 521 436 518 438 516 441 513 444 511 447 509 451 508 455 508 459 509 463 511 466 514 468 517 470 521 470 524 471 528 471 531 469 535 466 538 464 540 460 541 457 541 454 541 452 540 449 538 448 535 446 533 445 530 445 527 444 525 444 523 444 522 444 522 444 522 444 522 444 523 444"></polyline><polyline points="548 433 548 433 550 435 551 438 553 442 555 445 556 447 558 449 558 450 558 450 559 450 560 448 561 445 563 440 565 435 567 431 568 429 569 429 569 429 570 429 571 431 573 434 574 437 576 439 577 441 577 442 577 442 578 443 578 443 578 443 578 443 579 442 580 441 582 438 584 435 585 432 587 430 588 429 588 428 588 428 590 429 592 431 595 434 597 438 600 443 602 448 604 451 605 454 606 455 606 456 606 456 606 456 606 456"></polyline><polyline points="629 461 631 467 633 474 634 480 635 485 636 489 636 491 636 492 636 492 636 490 635 486 633 480 630 472 627 462 624 453 621 443 620 436 618 430 618 426 618 422 618 419 620 417 622 415 625 414 629 413 633 413 637 414 641 416 645 418 648 421 652 424 656 429 659 432 662 436 663 438 663 440 662 442 658 443 654 445 648 446 643 447 639 448 637 448 636 448 636 448 636 448 636 448 638 447"></polyline><polyline points="675 431 675 431 675 433 676 436 677 440 679 443 681 447 685 450 688 451 691 453 694 453 698 453 702 453 705 451 708 449 709 446 709 442 709 438 706 433 702 429 696 425 691 421 686 419 683 417 681 416 680 416 680 416 680 416 680 416 681 415 683 414 686 414 689 414 692 414 695 415 698 416 702 418 705 421 709 425 712 429 715 434 717 438 719 441 720 443 721 445 721 445 722 444 723 441 725 437 727 431 729 426 731 421 732 419 733 417 734 417 735 417 736 419 738 421 739 425 740 430 741 437 742 444 743 449 744 454 744 457 744 459 744 459 745 459 746 458 748 457 751 454 753 453 755 451 757 449 759 448 760 446 762 445 764 443 765 440 767 437 768 435 769 432 769 430 769 428 768 425 766 423 764 421 762 421 760 421 759 423 758 426 757 430 757 434 757 438 757 442 758 444 759 446 761 447 763 447 765 446 769 445 772 442 775 440 777 439 778 438 778 437 779 437 780 438 782 439 785 441 787 443 789 445 790 447 791 447 791 448 792 448 794 447 796 446 799 444 802 442 804 441 806 440 808 440 809 441 811 442 812 445 813 448 813 449 814 451 814 451 814 451 815 450 815 447"></polyline><polyline points="830 348 832 349 834 353 837 359 839 367 841 377 843 387 844 397 844 405 844 411 844 417 844 422 844 428 843 433 842 436 842 437 841 438 840 437 839 435"></polyline><polyline points="816 399 818 398 822 397 827 396 834 395 840 395 847 395 852 395 856 396 859 396 861 397 861 397 861 398 859 398"></polyline><polyline points="327 489 326 491 325 494 325 498 325 503 325 509 326 517 326 525 327 534 328 543 328 552 329 561 329 569 330 575 331 581 331 584 332 586 332 587 332 588 332 588 332 588 332 588 332 588 332 588 332 588 332 588 333 588 333 588 333 588 333 589 334 590 337 591 340 593 346 594 353 596 362 597 371 598 380 599 387 600 392 601 395 601 397 601 398 601 399 602 399 602 400 602 400 602 400 602 400 602 400 602 400 602 401 602 401 602 401 602 401 602 401 602 401 602 402 602 402 602 402 602 402 601 401 600 400 597 398 594 395 591 393 589 391 586 388 584 386 583 385 582 384 581 383 581 383 581 383 581 382 580 382 580 381 580 381 580 381 580 381 580 381 580 381 580 381 580 381 580 381 580 381 580 381 580 381 580 380 580 380 580 380 580 380 580 380 579 380 579 380 579 380 579 380 579 380 579 380 579 380 579 380 579 380 579 381 579 382 580 382 580 383 581 385 582 386 583 387 584 389 586 390 587 392 589 393 592 395 594 397 597 399 599 401 601 402 603 403 604 405 606 406 607 407 608 408 610 409 610 410 611 410 611 410 611 410 611 410 611 410 611 410 611 410 611 410 611 410 611 410 611 410 611 410 611 410 611 410 611 409 611 408 612 406 612 404 613 401 615 397 617 391 620 385 623 378 626 373 629 369 631 367 632 367 632 367 632 366 632 366 632 366 632 366 632 366 632 366 632"></polyline><polyline points="495 564 494 563 491 562 488 561 485 560 482 560 479 560 476 560 473 561 469 563 466 566 464 570 461 575 460 581 459 589 459 596 459 604 461 611 464 617 468 622 473 627 478 630 483 632 489 634 495 634 501 634 506 633 511 632 515 630 518 629 521 627 523 624 526 620"></polyline><polyline points="538 593 535 594 532 596 530 598 528 600 527 603 526 607 526 612 526 616 528 620 531 623 535 625 539 627 543 627 546 627 549 626 551 623 553 621 554 617 554 614 553 610 551 606 549 602 546 599 543 597 540 595 539 594 538 594 537 594 537 594 537 593 537 593"></polyline><polyline points="565 600 568 605 570 609 573 612 574 614 575 615 575 615 576 615 577 612 578 609 580 604 582 599 583 596 583 594 584 593 584 593 585 593 586 594 588 596 590 598 591 599 592 601 592 601 593 602 593 602 593 602 593 602 594 600 596 597 598 593 599 589 601 586 602 583 603 582 605 581 607 581 610 583 614 586 618 590 622 596 625 602 628 607 630 612 631 615 632 616 632 617 632 617 631 616 629 615"></polyline><polyline points="650 594 650 597 651 602 652 610 654 618 655 626 656 633 656 637 656 640 657 641 657 640 656 637 654 631 652 622 649 612 647 601 644 590 643 581 642 574 642 570 642 567 642 566 642 566 643 566 646 566 651 568 657 572 664 576 670 581 675 586 679 591 682 595 682 598 681 601 678 603 673 604 667 605 661 605 656 605 654 603 653 601 654 599"></polyline><polyline points="696 584 694 587 692 590 691 594 691 597 693 601 695 605 699 609 704 612 709 614 715 615 720 615 723 615 726 614 728 612 729 609 729 605 728 600 725 594 720 587 716 581 713 576 711 572 710 570 710 569 712 569 716 570 720 572 724 576 728 581 732 586 735 591 737 596 738 599 738 600 739 601 739 601 739 601 739 601 740 599 741 596 743 592 745 588 748 585 750 583 752 582 755 582 758 584 761 588 764 591 767 595 770 598 772 601 774 602 776 602 778 602 781 600 785 598 787 596 788 595 789 594 789 594 790 593 791 591 792 589 793 588 794 587 794 586 794 585 793 585 791 585 790 587 788 589 787 592 787 595 787 598 789 600 790 601 791 602 793 602 795 602 797 601 799 600 800 599 801 598 803 598 804 598 806 598 808 598 812 600 815 602 817 605 820 607 821 609 822 610 822 611 823 611 824 610 824 607"></polyline><polyline points="823 521 826 526 829 534 832 544 834 555 836 567 838 577 840 587 841 594 842 598 842 600 843 601 843 601"></polyline><polyline points="823 539 825 538 828 537 831 537 835 536 839 535 843 535 847 535 851 535 854 535 856 535 858 535 859 535 859 535 861 535 861 536 862 536 862 536 862 536 863 536 863 536 863 537 863 539"></polyline><polyline points="1400 618 1399 617 1397 614 1394 613 1392 611 1389 610 1385 609 1381 609 1374 609 1367 610 1359 612 1350 616 1342 621 1333 628 1326 637 1319 647 1315 657 1313 667 1314 676 1318 683 1324 689 1333 693 1343 695 1353 695 1363 695 1372 695 1380 694 1386 694 1389 693 1392 692 1393 692 1394 691"></polyline><polyline points="1413 650 1407 652 1400 655 1394 659 1389 663 1386 668 1384 673 1384 678 1385 683 1388 688 1392 691 1396 693 1401 694 1406 694 1410 691 1414 687 1418 683 1419 678 1420 673 1420 669 1420 665 1420 663 1420 662 1419 661 1419 661 1419 661 1419 663 1419 666 1421 670 1424 674 1427 678 1431 681 1435 684 1439 686 1441 687 1442 688"></polyline><polyline points="1439 657 1440 661 1442 665 1444 670 1445 675 1446 678 1446 681 1447 682 1447 682 1447 681 1448 678 1448 673 1450 667 1451 661 1452 655 1453 651 1454 649 1454 649 1455 650 1457 652 1458 654 1459 657 1460 660 1461 663 1462 667 1463 670 1463 671 1463 672 1463 672 1463 672 1464 669 1465 666 1466 660 1468 655 1470 650 1472 647 1473 647 1475 648 1476 651 1478 657 1480 663 1482 669 1484 675 1487 680 1488 683 1490 685 1492 686 1493 686"></polyline><polyline points="1500 678 1500 677 1501 675 1502 672 1503 669 1505 666 1506 662 1507 659 1508 655 1508 653 1508 651 1507 650 1506 650 1504 650 1502 651 1499 653 1496 657 1494 662 1492 667 1491 672 1491 677 1491 681 1493 684 1496 687 1500 689 1505 690 1510 690 1515 690 1520 690"></polyline><polyline points="1537 677 1538 667 1539 658 1541 649 1543 643 1545 640 1547 639 1549 640 1552 642"></polyline><polyline points="1581 657 1581 657 1578 658 1574 660 1569 663 1564 667 1560 672 1558 677 1558 681 1558 685 1560 689 1564 691 1568 691 1573 691 1577 688 1581 685 1585 680 1587 675 1589 672 1590 669 1590 667 1590 667 1591 667 1592 668 1594 670 1598 674 1602 678 1607 682 1613 686 1618 689 1623 692 1627 694 1631 696 1633 697"></polyline><polyline points="1462 610 1462 609 1462 606 1462 603 1464 597 1466 591 1468 583 1471 574 1473 566 1475 557 1476 549 1477 541 1478 534 1479 528 1479 523 1480 520 1480 519 1480 518 1480 518 1480 518 1480 518 1480 518 1480 518 1480 518 1480 517 1480 517 1480 517 1480 517 1480 517 1480 517 1480 517"></polyline><polyline points="1424 462 1423 459 1423 457 1422 456 1422 455 1422 454 1422 453 1422 453 1422 453 1422 453 1422 453 1422 454 1421 456 1421 460 1420 466 1420 472 1420 479 1420 485 1420 490 1420 494 1420 497 1420 499 1420 499 1420 500"></polyline><polyline points="1410 424 1410 423 1409 422 1409 421 1409 420 1410 418 1412 417 1415 416 1418 416 1422 416 1425 418 1429 421 1432 426 1435 431 1436 436 1437 441 1437 445 1437 449 1436 452 1434 455 1432 456 1429 458 1427 459 1425 460 1423 461 1422 461 1422 461 1421 462 1421 462 1421 462 1421 462 1420 462 1420 463 1420 463 1420 463 1419 463 1419 463 1419 463 1419 463 1419 463 1419 464 1419 466 1420 468 1422 471 1424 475 1427 480 1430 485 1434 490 1438 495 1441 498 1443 501 1445 502 1447 503 1448 504 1448 504 1448 504"></polyline><polyline points="1458 485 1461 483 1464 480 1464 477 1464 473 1462 470 1460 469 1457 469 1455 472 1453 475 1453 479 1453 483 1453 486 1455 488 1458 491 1460 493 1462 494 1464 494 1466 494 1469 493 1471 491"></polyline><polyline points="1477 475 1477 477 1479 480 1479 483 1480 485 1480 486 1481 487 1481 487 1481 487 1483 485 1485 483 1488 479 1491 476 1493 474 1495 472 1496 471 1497 471 1499 472 1500 474 1502 478 1504 482 1506 486 1507 489 1507 491 1508 492 1508 493 1509 493"></polyline><polyline points="1530 473 1528 473 1525 475 1520 477 1517 480 1514 484 1512 488 1511 492 1512 495 1515 497 1518 499 1523 499 1528 497 1533 494 1537 490 1540 485 1542 479 1542 472 1542 463 1541 454 1540 444 1539 434 1538 427 1537 422 1537 419 1537 417 1537 415 1537 415 1537 415 1537 415 1537 416 1538 418 1539 423 1540 429 1541 437 1541 446 1541 455 1541 464 1541 472 1541 479 1541 484 1541 487 1541 488 1543 488 1544 488 1547 487 1550 485"></polyline><polyline points="1558 477 1559 477 1560 478 1560 478 1562 478 1564 478 1566 476 1568 473 1570 470 1570 467 1570 464 1569 462 1568 460 1567 460 1565 460 1564 460 1562 462 1561 464 1560 467 1560 470 1560 473 1562 476 1564 478 1568 480"></polyline><polyline points="1586 485 1586 483 1585 480 1585 476 1585 471 1585 468 1586 464 1587 461 1588 459 1590 458 1592 457 1594 457 1596 457"></polyline><polyline points="1609 479 1609 479 1610 478 1612 477 1613 475 1614 472 1615 469 1615 467 1615 465 1614 464 1612 464 1611 465 1609 467 1607 470 1606 474 1605 477 1605 480 1605 482 1606 484 1608 486 1611 487"></polyline><polyline points="1626 488 1626 484 1626 481 1626 477 1626 473 1626 470 1627 467 1630 465 1633 464 1637 464 1641 464 1645 465 1650 467"></polyline><polyline points="1590 308 1588 311 1586 314 1583 318 1580 323 1576 329 1572 335 1567 342 1562 350 1557 357 1551 365 1547 372 1544 377 1542 380 1541 382 1540 383 1540 383 1540 383 1540 383 1540 383"></polyline><polyline points="1543 229 1543 228 1543 228 1543 228 1543 228 1543 229 1543 231 1543 235 1543 239 1543 245 1544 251 1545 257 1546 261 1546 264 1547 265 1547 266 1548 266 1550 265 1552 264 1555 263 1556 261 1558 260 1560 260 1562 260 1564 262 1566 264 1568 268 1570 272 1572 276 1574 279 1575 281 1577 284 1578 285 1580 286 1583 286 1585 286 1588 283 1591 279 1594 274 1596 268 1597 261 1598 254 1598 247 1597 240 1597 234 1596 229 1595 225 1595 224 1594 223 1594 223 1594 223 1594 223"></polyline><polyline points="1618 292 1617 294 1617 295 1617 296 1617 296 1617 296"></polyline><polyline points="1618 253 1619 255"></polyline><polyline points="1639 260 1640 264 1640 268 1640 272 1640 277 1640 280 1639 283 1639 284 1639 285 1639 285 1639 285 1640 284 1642 282 1644 281 1646 280 1647 279 1649 279 1650 280 1652 281 1653 283 1654 284 1655 286 1655 288 1656 289"></polyline><polyline points="1677 284 1677 284 1675 284 1673 284 1669 286 1666 289 1663 291 1661 293 1660 295 1660 296 1660 298 1660 299 1662 299 1665 298 1669 296 1673 292 1677 288 1681 283 1685 276 1687 270 1688 262 1688 254 1688 245 1687 235 1686 227 1686 220 1685 215 1685 211 1685 210 1685 210 1685 210 1685 213 1686 217 1686 223 1687 231 1687 240 1687 250 1686 259 1685 267 1685 274 1685 280 1685 285 1686 288 1686 289 1688 290"></polyline><polyline points="1704 285 1702 288 1701 291 1700 294 1700 297 1700 300 1702 303 1704 306 1707 307 1710 308 1713 308 1716 307 1719 304 1721 301 1722 297 1723 292 1723 288 1721 283 1719 280 1717 277 1715 275 1714 274 1713 274 1713 273 1713 273 1712 273 1712 273 1713 275"></polyline><polyline points="1726 282 1727 283 1729 284 1730 286 1732 292 1733 297 1734 302 1735 305 1736 306 1737 306 1739 306 1741 305 1745 303 1748 301 1751 299 1753 297 1754 296 1754 296 1755 296 1756 297 1757 298 1759 300 1761 301 1762 303 1763 305 1765 306 1766 307 1767 307 1769 307 1772 306 1774 304 1776 301 1778 299 1779 296 1780 293 1780 290 1780 286 1780 283 1779 280 1777 279 1777 278 1775 278"></polyline><polyline points="1697 173 1697 173 1697 173 1697 173 1697 173 1697 173 1697 172 1698 171 1700 169 1702 167 1703 166 1705 164 1705 164 1706 163 1706 163 1706 163 1706 163 1707 162 1707 162 1707 162 1707 162 1707 162 1707 162 1707 162 1707 162 1707 161 1708 161 1708 161 1708 161 1708 161 1708 161 1708 161 1708 161 1708 161 1708 161 1708 161 1708 161 1708 161 1708 161 1709 160 1709 159 1710 156 1711 154 1713 150 1715 147 1718 142 1721 138 1724 133 1728 127 1731 122 1734 118 1737 113 1739 110 1741 106 1743 104 1745 102 1746 101 1746 101 1746 101 1746 100 1746 100 1746 100 1746 100"></polyline><polyline points="1741 23 1739 23 1738 22 1735 22 1732 25 1728 28 1725 33 1722 39 1720 45 1719 52 1719 58 1722 63 1726 68 1731 72 1738 74 1742 75 1747 75 1752 75 1755 73 1760 70 1762 66 1764 61 1764 55 1763 48 1761 42 1758 36 1754 31 1751 27 1748 24 1746 23 1744 22 1744 22 1743 22 1742 22"></polyline><polyline points="1789 8 1789 8 1789 8 1789 8 1789 8 1788 8 1788 8 1788 8 1788 8 1788 8 1788 8 1787 8 1787 8 1787 8 1787 8 1787 8 1787 8 1786 8 1786 8 1785 10 1785 12 1784 17 1783 23 1783 30 1783 38 1783 46 1783 53 1783 60 1783 65 1783 69 1784 70 1784 71 1784 71 1784 71 1784 71 1784 71 1784 71 1784 72 1784 72 1785 72 1786 71 1786 71 1788 70 1789 69 1790 69 1793 69 1795 71 1799 74 1803 77 1806 81 1810 85 1812 88 1814 90 1814 91 1813 92 1810 92 1805 92 1800 91 1793 90 1788 89 1784 87 1781 87 1780 86 1779 86 1779 86 1779 86 1779 86 1779 85"></polyline><polyline points="1827 67 1827 67 1827 67 1827 67 1827 69 1827 73 1827 78 1828 85 1829 92 1829 100 1829 108 1829 114 1829 120 1827 125 1824 130 1819 136 1813 141 1806 145 1798 148 1791 149 1786 148 1782 145 1780 139"></polyline><polyline points="1817 53 1818 55 1819 58 1820 60 1820 62 1821 64 1821 65 1821 65"></polyline><polyline points="1852 70 1851 71 1851 72 1851 73 1852 74 1853 75 1855 75 1856 75 1858 74 1860 73 1862 71 1862 68 1862 66 1861 64 1859 63 1857 63 1854 63 1851 65 1849 67 1847 69 1845 72 1844 75 1842 79 1842 82 1842 85 1844 87 1847 88 1851 88"></polyline><polyline points="1879 80 1877 82 1874 84 1872 87 1871 89 1870 91 1870 93 1872 94 1875 96 1879 96 1884 95 1891 92"></polyline><polyline points="1923 20 1922 26 1922 34 1922 43 1922 52 1922 61 1922 68 1922 75 1923 79 1923 81 1923 83 1923 83 1923 83"></polyline><polyline points="1909 59 1911 59 1915 59 1919 59 1924 59 1929 60 1933 60 1936 61 1939 63 1939 64"></polyline><polyline points="1955 603 1955 603 1955 603 1955 603 1955 603 1954 606 1953 610 1953 617 1952 625 1952 633 1951 642 1951 651 1951 659 1951 666 1951 671 1951 673 1951 675 1951 675 1951 675 1951 675 1950 675 1950 673 1949 670"></polyline><polyline points="1950 585 1950 581 1951 579 1955 576 1959 575 1965 574 1970 575 1974 576 1977 579 1979 583 1980 586 1980 589 1979 592 1976 596 1974 598 1971 601 1967 604 1964 607 1961 609 1959 611 1958 613 1957 613 1957 614 1956 615 1956 615 1955 617 1955 619 1955 622 1955 625 1955 629 1956 634 1958 639 1959 644 1962 650 1964 654 1966 658 1969 662 1970 664 1971 665 1972 665 1974 665 1976 665"></polyline><polyline points="2004 654 2002 654 1998 655 1995 657 1993 660 1991 662 1990 665 1990 668 1992 670 1995 673 1999 674 2004 674 2008 674 2013 672 2016 670 2019 666 2021 664 2022 661 2022 657 2021 654 2019 649 2017 645 2014 642 2013 641 2011 640 2011 640 2011 640 2012 640"></polyline><polyline points="2043 641 2041 645 2039 648 2038 652 2037 655 2037 658 2039 661 2043 664 2048 666 2053 666 2059 666 2066 664 2071 661 2077 657 2081 653"></polyline><polyline points="2075 580 2077 587 2078 595 2080 605 2081 615 2082 627 2082 638 2081 647 2079 655 2078 660 2077 663 2076 665 2076 665 2076 665 2075 663 2074 662 2074 660 2074 658 2074 656 2076 653 2077 650 2082 643 2086 635 2091 627 2096 619 2099 613 2099 611 2099 611 2098 614 2095 621 2093 628 2092 636 2092 643 2093 648 2096 652 2099 654 2104 655 2108 655 2112 655 2117 654 2121 652"></polyline><polyline points="2141 641 2141 641 2141 641 2141 640 2142 638 2143 636 2144 633 2145 630 2146 627 2147 625 2146 623 2145 622 2143 622 2141 622 2139 623 2136 626 2134 630 2132 635 2132 640 2132 644 2134 648 2136 650 2139 652 2142 653 2145 653 2147 653 2150 651 2152 649"></polyline><polyline points="2173 571 2174 576 2175 583 2175 592 2175 603 2174 614 2173 625 2171 635 2170 644 2168 651 2167 655 2167 657 2167 657 2167 656"></polyline><polyline points="2163 616 2168 616 2174 615 2181 615 2187 615 2191 615 2193 615 2195 614 2197 614 2197 613"></polyline><polyline points="1999 468 1999 473 1999 479 2001 487 2003 495 2006 505 2009 514 2011 521 2013 528 2015 534 2016 538 2018 544 2019 548 2020 550 2020 551 2020 551 2019 549 2017 545"></polyline><polyline points="1941 399 1942 403 1942 409 1943 415 1944 422 1945 429 1946 435 1948 440 1949 442 1951 443 1953 443 1956 442 1964 436 1968 433 1971 430 1974 428 1975 427 1977 426 1979 426 1981 428 1983 431 1986 434 1989 437 1991 440 1993 441 1995 442 1996 443 1997 443 1999 442 2001 439 2003 434 2004 426 2005 418 2005 409 2003 399 2002 392 2001 386 2000 381 1999 378 1999 376 1999 376 1999 377 1999 380"></polyline><polyline points="2029 441 2030 442 2032 442 2035 442 2037 441 2039 440 2040 439 2040 437 2040 435 2039 433 2038 430 2036 428 2033 427 2031 427 2029 427 2028 427 2026 430 2025 432 2023 436 2022 441 2022 446 2022 450 2023 453 2024 456 2026 457 2029 458 2032 457 2037 455 2042 452"></polyline><polyline points="2061 440 2061 440 2061 440 2060 441 2059 443 2058 445 2056 448 2056 451 2056 453 2056 455 2058 457 2061 457 2064 456 2068 454 2072 451 2075 448 2077 445 2078 442 2079 441 2079 441 2079 441 2079 441 2079 441 2078 443 2078 445 2078 448 2078 450 2078 452 2080 454 2082 456 2086 458 2089 460 2092 463"></polyline><polyline points="2101 482 2101 485 2101 487 2102 487 2102 487 2101 485 2100 482 2099 476 2097 469 2095 460 2093 451 2091 441 2090 432 2090 426 2090 422 2090 420 2090 419 2090 418 2091 418 2093 418 2096 420 2100 423 2103 427 2106 431 2108 435 2109 438 2109 441 2109 444 2107 446 2104 447 2101 448 2098 449 2096 449 2096 449 2096 449 2096 448 2098 447"></polyline><polyline points="2120 443 2119 444 2117 445 2114 447 2111 450 2108 453 2107 456 2106 458 2106 459 2107 459 2110 459 2113 459 2118 456 2122 453 2127 449 2132 445 2136 442 2139 440 2141 438 2143 438 2146 438 2148 438 2149 440 2150 443 2152 446 2152 449 2153 451 2154 452 2154 452 2154 452 2154 452 2155 452 2157 451 2160 449 2165 447 2169 444 2173 442 2176 442 2178 442 2181 443 2184 445 2186 447 2188 449 2190 452 2192 454 2193 455 2194 456 2195 457 2196 457 2196 457 2198 457"></polyline><polyline points="1927 147 1927 147 1927 147 1927 147 1927 147 1927 147 1927 146 1927 146 1927 146 1927 146 1927 147 1928 149 1930 151 1933 156 1935 161 1939 166 1943 173 1948 180 1953 189 1958 198 1964 207 1969 217 1975 227 1980 237 1984 246 1987 253 1990 260 1993 265 1995 271 1998 277 2001 282 2003 286 2005 290 2007 293 2008 295 2009 298 2010 300 2011 302 2012 304 2012 306 2013 308 2013 311 2013 314 2014 317 2015 321 2015 324 2017 327 2018 330 2019 334 2021 336 2022 338 2023 341 2024 343 2026 346 2027 348 2028 351 2029 353 2029 354 2030 354 2030 354 2030 354"></polyline><polyline points="1665 900 1664 904 1664 909 1664 915 1665 922 1665 929 1666 935 1667 942 1667 948 1668 955 1668 961 1668 966 1668 971 1668 973 1668 975 1668 976 1668 976 1668 976 1668 976 1668 975 1668 974 1667 972 1666 970 1665 967 1665 965"></polyline><polyline points="1655 887 1655 883 1658 880 1661 878 1665 876 1670 875 1675 874 1681 874 1686 875 1691 876 1696 877 1699 879 1701 882 1702 884 1702 887 1701 890 1697 894 1693 900 1688 906 1683 913 1679 919 1675 924 1672 929 1671 933 1669 936 1669 939 1669 942 1669 945 1669 949 1670 953 1671 957 1672 961 1674 965 1676 968 1679 971 1681 974 1683 976 1684 978 1685 980 1686 982 1688 984"></polyline><polyline points="1725 966 1725 964 1725 962 1724 960 1723 959 1723 958 1722 957 1722 956 1722 956 1722 956 1722 956 1721 956 1721 956 1720 956 1718 957 1716 959 1715 961 1713 965 1712 968 1711 972 1710 976 1710 979 1710 982 1711 986 1713 988 1715 990 1717 992 1720 992 1723 992 1726 991 1729 988 1731 985 1733 982 1734 978 1734 974 1734 969 1734 964 1733 961 1730 959 1727 957 1724 957 1721 957 1719 957 1718 957 1717 958 1717 959"></polyline><polyline points="1761 950 1759 952 1757 954 1755 958 1754 962 1754 967 1755 972 1759 976 1764 979 1769 982 1775 983 1781 983 1787 981"></polyline><polyline points="1793 904 1793 915 1793 927 1793 936 1792 943 1792 951 1791 957 1790 966 1790 974 1789 981 1789 987 1789 990"></polyline><polyline points="1784 958 1784 958 1784 957 1785 955 1787 952 1790 946 1794 940 1797 934 1801 928 1804 922 1807 917 1809 913 1811 910 1812 907 1812 906 1813 906 1813 906 1812 907 1810 910"></polyline><polyline points="1797 945 1797 945 1796 945 1795 947 1794 949 1794 952 1794 955 1794 959 1794 964 1794 970 1794 976 1795 983 1796 989 1798 993 1800 996 1803 998"></polyline><polyline points="1822 988 1823 987 1825 986 1827 985 1829 983 1832 981 1834 978 1835 975 1835 972 1835 970 1835 968 1835 967 1834 967 1833 968 1832 970 1831 973 1831 977 1831 980 1833 984 1836 987 1839 989 1843 990 1847 990 1850 988"></polyline><polyline points="1881 913 1881 924 1881 934 1881 943 1881 951 1882 957 1882 961 1882 964 1882 966 1882 967"></polyline><polyline points="1868 950 1873 951 1878 951 1885 951 1890 951 1895 951 1898 951"></polyline><polyline points="1931 911 1929 909 1927 908 1924 908 1921 909 1918 910 1913 913 1908 917 1901 923 1895 929 1891 935 1888 941 1887 946 1891 956 1896 960 1903 963 1911 966 1919 968 1927 969 1933 969 1939 970"></polyline><polyline points="1965 950 1963 949 1960 949 1956 951 1953 953 1950 957 1949 961 1948 965 1948 970 1949 973 1952 976 1955 978 1958 978 1962 976 1965 973 1969 968 1972 962 1974 957 1975 952 1975 948 1976 947 1976 946 1976 946 1976 948 1975 950 1975 955 1974 960 1974 965 1974 970 1975 974 1977 978 1979 979 1981 980 1983 979 1985 976"></polyline><polyline points="1996 954 1996 958 1996 962 1997 967 1997 971 1998 974 1998 976 2000 977 2002 976 2006 973 2011 968 2016 963 2020 958 2024 954 2027 952 2029 951 2030 951 2032 952 2033 955 2035 957 2036 960 2037 962 2038 963 2038 964 2038 964 2038 964 2039 964 2040 963 2043 962 2046 959 2051 956 2055 952 2059 949 2062 947 2065 946 2066 947 2068 949 2069 952 2070 955 2071 958 2072 960 2072 961 2073 962 2073 962 2073 962"></polyline><polyline points="2276 406 2283 406 2295 406 2309 405 2326 404 2345 402 2365 400 2385 399 2404 397 2421 397 2435 396 2446 396 2453 396 2457 396 2458 396 2458 396 2456 395 2453 393 2448 393"></polyline><polyline points="2258 436 2261 434 2265 433 2271 432 2280 431 2292 430 2308 430 2327 429 2348 428 2370 427 2390 426 2409 426 2425 425 2436 425 2443 425 2449 424 2451 424 2454 424 2455 424 2455 424 2455 424 2455 424 2456 424 2456 423 2457 422 2458 420 2458 417"></polyline><polyline points="2438 349 2443 352 2451 356 2457 359 2465 363 2473 367 2481 371 2490 377 2498 382 2504 386 2509 390 2512 393 2513 394 2514 394 2514 394 2514 394 2514 394 2514 395 2514 395 2514 395 2514 395 2514 395 2514 395 2514 395 2514 395 2514 395 2514 395 2514 395 2514 395 2514 395 2514 395 2514 395 2514 396 2513 396 2513 396 2513 396 2513 396 2513 396 2512 398 2510 402 2506 409 2501 417 2493 428 2483 440 2471 452 2458 462 2446 471 2438 477 2432 481 2428 483 2427 484 2426 484 2426 484 2426 484 2426 484 2426 484 2426 484 2426 484 2426 484 2426 484 2426 484 2426 484 2427 483"></polyline><polyline points="2707 251 2708 250 2708 248 2708 247 2708 245 2708 243 2706 241 2705 239 2703 238 2700 238 2696 238 2691 239 2684 242 2677 246 2670 253 2664 261 2659 269 2657 278 2657 286 2658 292 2662 298 2668 301 2675 303 2683 303 2691 301 2699 299 2706 296 2711 295 2713 294 2715 293 2715 294 2716 294"></polyline><polyline points="2749 266 2746 265 2744 265 2740 265 2737 265 2733 266 2729 268 2726 271 2723 274 2722 278 2721 282 2721 286 2723 290 2726 293 2730 295 2734 295 2738 295 2742 293 2745 289 2747 285 2750 282 2751 279 2751 277 2752 277 2752 277 2752 277 2752 277 2752 277 2752 277 2753 278 2755 280 2757 284 2759 287 2761 291 2763 295 2766 298 2768 301 2770 302 2773 302 2775 302 2777 299"></polyline><polyline points="2782 263 2783 267 2784 271 2785 277 2786 284 2787 289 2787 293 2788 296 2788 297 2788 296 2789 294 2790 290 2791 284 2793 278 2795 273 2796 269 2797 267 2798 267 2799 267 2800 269 2802 271 2803 274 2803 277 2804 279 2804 281 2804 283 2804 283 2804 283 2804 283 2805 282 2806 279 2808 275 2810 271 2813 266 2815 263 2817 261 2818 261 2820 262 2821 265 2822 270 2823 275 2824 280 2826 285 2827 289 2828 291 2830 293 2831 293 2833 293"></polyline><polyline points="2839 292 2840 291 2841 289 2842 287 2844 284 2846 281 2848 277 2850 274 2852 271 2853 269 2853 267 2854 267 2853 267 2852 267 2849 268 2847 269 2844 271 2842 273 2840 276 2838 279 2837 283 2837 286 2837 289 2838 291 2840 293 2844 293 2848 293 2853 293 2858 292 2862 291 2866 290"></polyline><polyline points="2871 284 2870 281 2869 277 2869 272 2869 265 2871 258 2872 252 2874 246 2876 243 2878 240 2879 238 2880 237 2881 236 2883 236 2885 236"></polyline><polyline points="2907 259 2905 258 2903 258 2900 260 2896 262 2892 266 2889 271 2888 276 2887 280 2887 283 2888 285 2891 285 2894 283 2898 280 2902 276 2905 271 2908 267 2909 265 2910 263 2910 263 2910 263 2911 264 2912 266 2914 268 2917 271 2921 274 2923 276 2926 278 2929 280 2930 282 2932 284 2933 287"></polyline><polyline points="2612 216 2612 216 2612 216 2612 216 2612 216 2612 216 2612 216 2612 217 2612 219 2614 223 2615 228 2617 234 2621 248 2623 256 2625 264 2627 273 2628 281 2629 287 2629 294 2630 299 2630 304 2631 311 2631 316 2631 320 2632 324 2632 327 2632 330 2633 333 2633 335 2633 336 2633 337 2634 338 2634 339 2634 340 2635 341 2635 342 2635 342 2635 342 2635 341"></polyline><polyline points="2621 204 2624 203 2629 203 2633 202 2639 202 2645 202 2652 202 2662 202 2671 202 2681 202 2691 202 2700 203 2720 204 2730 205 2741 206 2751 207 2761 207 2772 207 2783 207 2794 207 2805 206 2815 206 2824 206 2832 206 2840 206 2848 206 2854 206 2860 206 2867 206 2874 206 2883 206 2892 205 2900 205 2907 205 2913 206 2919 208 2924 209 2930 210 2935 211 2940 211 2943 211 2947 211 2949 211 2950 209"></polyline><polyline points="2646 343 2650 343 2656 343 2663 343 2671 343 2680 343 2690 342 2700 342 2711 342 2721 341 2730 341 2740 341 2748 341 2756 341 2764 340 2770 340 2775 340 2780 340 2785 340 2792 340 2799 340 2806 340 2813 340 2821 341 2828 341 2835 341 2841 341 2847 341 2853 342 2859 342 2864 342 2870 342 2877 342 2883 342 2889 342 2895 342 2901 342 2906 342 2912 341 2915 341 2919 341 2922 341 2925 341 2929 341 2933 341 2937 341 2941 341 2944 341 2948 341 2952 342 2955 342 2958 342 2961 342 2962 342 2963 342 2963 342 2963 342 2963 342 2963 340"></polyline><polyline points="2954 208 2954 208 2954 208 2954 207 2954 207 2954 207 2954 207 2954 207 2955 207 2955 207 2955 207 2955 208 2956 210 2957 214 2957 218 2957 224 2957 230 2957 238 2957 246 2956 255 2955 263 2954 271 2953 279 2953 286 2953 292 2953 298 2953 304 2953 308 2953 311 2953 314 2953 317 2954 321 2954 325 2955 328 2955 331 2955 333 2955 334 2955 335 2955 335 2955 335 2955 335 2955 335"></polyline><polyline points="3131 216 3131 219 3130 224 3130 229 3129 235 3129 241 3129 249 3129 257 3129 265 3129 274 3129 282 3129 290 3129 299 3128 306 3127 314 3126 320 3126 326 3125 331 3125 334 3124 335 3124 336 3124 336 3124 334 3125 331"></polyline><polyline points="3133 206 3134 207 3137 208 3142 210 3147 211 3154 212 3163 212 3172 212 3183 212 3194 212 3206 211 3218 210 3227 210 3236 209 3246 208 3255 207 3268 207 3281 206 3293 205 3303 205 3312 205 3320 206 3328 206 3334 207 3339 208 3344 208 3347 209 3350 209 3352 209 3352 209"></polyline><polyline points="3148 262 3148 266 3148 270 3148 276 3148 282 3148 288 3148 293 3148 296 3148 299 3149 300 3149 300 3149 300 3150 297 3150 294 3150 290 3150 285 3150 281 3150 276 3149 272 3149 267 3148 264 3148 260 3147 256 3147 253 3147 249 3148 245 3148 242 3149 239 3149 237 3149 237 3150 236 3151 236 3153 236 3155 238 3158 240 3161 243 3163 246 3165 249 3166 253 3166 256 3166 261 3165 264 3163 268 3162 271 3159 275 3157 278 3155 281 3153 284 3151 287 3151 290 3151 293 3151 295 3152 297 3155 299 3158 301 3161 303 3164 304 3166 306 3168 307 3169 307 3169 308"></polyline><polyline points="3194 285 3192 284 3190 284 3188 285 3185 287 3184 290 3183 293 3183 295 3183 297 3184 300 3185 301 3186 303 3188 305 3189 305 3191 305 3194 304 3196 302 3198 299 3200 296 3200 293 3200 290 3200 288 3200 287 3200 286 3199 286 3199 286 3199 286 3199 286 3200 286"></polyline><polyline points="3223 284 3222 286 3219 288 3217 291 3216 295 3216 297 3216 300 3218 301 3220 303 3223 303 3226 303 3229 303 3231 302 3233 300 3234 297"></polyline><polyline points="3250 237 3251 240 3251 247 3252 252 3252 260 3252 268 3252 275 3252 285 3251 292 3250 298 3250 301 3249 303 3249 304"></polyline><polyline points="3253 284 3255 281 3257 277 3259 274 3262 270 3264 267 3266 264 3268 261 3270 259 3271 257 3272 256 3273 256 3273 256 3272 256 3271 258 3269 262 3266 267 3265 272 3264 277 3264 282 3265 286 3267 289 3270 291 3274 292 3278 292 3282 292"></polyline><polyline points="3287 291 3287 291 3288 290 3289 289 3290 288 3291 286 3292 284 3293 283 3293 282 3293 282 3293 282 3293 282 3293 282 3293 283 3293 285 3292 288 3292 291 3292 294 3292 296 3292 297 3293 297 3293 297 3295 296 3298 294 3301 289"></polyline><polyline points="3324 242 3323 250 3322 259 3322 268 3322 277 3322 283 3322 287 3323 290 3324 291 3324 292 3324 292 3324 290"></polyline><polyline points="3319 268 3323 268 3327 268 3330 268 3333 268 3334 269"></polyline><polyline points="3125 347 3127 346 3129 346 3133 345 3137 345 3144 344 3153 344 3164 343 3176 342 3190 341 3204 340 3219 340 3233 339 3248 339 3262 339 3276 339 3290 339 3302 340 3313 342 3323 343 3332 343 3341 344 3349 344 3357 344 3363 344 3367 344 3371 343 3375 343 3378 343 3383 343 3387 343 3391 343 3394 343 3397 343 3399 343 3400 344 3401 344 3401 344 3402 343 3403 342 3403 339"></polyline><polyline points="3363 211 3363 213 3363 216 3364 222 3364 228 3364 236 3364 246 3362 257 3361 269 3359 280 3358 291 3357 301 3355 321 3354 330 3352 338 3351 345 3350 351 3348 356 3348 359 3348 360 3348 361 3347 360 3347 359"></polyline><polyline points="2786 469 2786 473 2786 479 2786 485 2786 491 2787 496 2788 501 2788 504 2788 506 2789 507 2789 507 2789 507 2789 507 2789 506 2789 503 2789 499 2789 494 2789 488 2789 482 2789 477 2788 472 2787 467 2786 463 2784 460 2783 456 2781 453 2780 451 2780 449 2780 448 2780 446 2782 445 2784 444 2787 444 2791 443 2796 443 2802 443 2807 444 2811 445 2813 447 2815 450 2814 454 2812 459 2808 465 2804 472 2801 477 2798 482 2796 486 2796 489 2796 491 2799 493 2802 494 2806 496 2809 497 2813 498 2816 499 2818 500 2819 501 2820 502 2821 502 2821 503 2821 503"></polyline><polyline points="2843 484 2840 484 2837 485 2834 486 2832 488 2830 490 2830 492 2830 494 2830 496 2832 498 2834 500 2836 502 2838 502 2840 502 2841 502 2843 500 2845 498 2846 494 2847 491 2848 488 2848 485 2848 484 2848 483 2848 483 2848 483 2848 483 2848 484 2848 486 2849 487"></polyline><polyline points="2860 490 2860 490 2860 491 2860 492 2861 494 2862 497 2865 499 2869 501 2874 503 2880 504 2885 504 2890 504 2894 503 2896 501 2897 497"></polyline><polyline points="2898 436 2899 442 2900 449 2901 457 2901 464 2902 472 2902 478 2902 484 2902 489 2902 492 2901 494 2901 494 2901 494 2901 494 2901 494 2901 493 2901 491 2901 488 2901 484 2902 480 2904 474 2907 469 2910 465 2912 461 2914 459 2916 457 2917 456 2917 456 2917 456 2916 457 2915 460 2913 465 2911 470 2909 474 2908 478 2908 482 2909 484 2911 487 2914 489 2917 489 2921 489 2926 488 2929 486 2932 484"></polyline><polyline points="2936 481 2936 480 2937 479 2937 477 2938 476 2938 474 2938 472 2938 472 2938 471 2938 471 2938 471 2938 472 2938 474 2938 477 2938 481 2939 484 2940 487 2941 489 2943 490 2946 490 2948 488"></polyline><polyline points="2973 441 2973 451 2973 461 2973 469 2973 476 2973 480 2974 483 2974 484 2974 484"></polyline><polyline points="2970 469 2973 469 2977 468 2981 468 2985 467 2988 467 2991 467 2993 467 2993 467"></polyline><polyline points="3031 430 3032 429 3032 429 3032 429 3032 428 3031 428 3028 428 3025 428 3020 430 3015 434 3010 438 3006 444 3000 456 2999 461 2999 466 3001 471 3003 474 3007 477 3011 479 3016 480 3021 480 3026 480 3032 479 3037 478 3042 476"></polyline><polyline points="3058 461 3055 460 3052 460 3049 461 3045 464 3042 467 3040 471 3039 474 3038 477 3038 479 3039 481 3039 482 3040 482 3042 482 3045 481 3048 479 3051 476 3054 473 3056 471 3057 470 3057 470 3057 470 3058 470 3058 471 3059 474 3060 477 3061 480 3062 482 3063 484 3063 485 3064 485 3065 484 3067 482 3069 479 3071 475 3073 472 3075 470 3075 468 3076 468 3076 467 3077 467 3077 468 3078 469 3079 472 3079 474 3079 476 3079 477 3080 478 3080 478 3080 478 3082 477 3084 476 3088 473 3091 469 3094 467 3096 465 3097 464 3098 464 3099 464 3100 465 3101 466 3102 468 3102 469 3103 470 3103 471 3104 472 3104 472 3104 472 3106 472 3108 471 3111 469 3115 467 3117 466 3119 466 3121 466 3123 467 3124 469 3126 472 3127 474 3128 475 3128 476 3128 477"></polyline><polyline points="2748 421 2748 424 2748 429 2749 434 2749 439 2750 446 2752 452 2753 460 2755 468 2756 477 2758 487 2759 498 2761 509 2762 519 2764 530 2765 540 2766 550 2768 561 2768 571 2769 582 2770 592 2770 602 2771 612 2772 620 2773 627 2773 634 2774 641 2776 651 2777 660 2778 668 2780 676 2781 684 2782 693 2782 700 2782 708 2782 715 2782 722 2782 727 2781 733 2781 738 2781 742 2781 746 2780 749 2779 752 2778 753 2777 753"></polyline><polyline points="2752 419 2752 419 2752 419 2752 419 2752 419 2752 419 2753 419 2755 419 2759 418 2764 418 2770 417 2777 417 2785 416 2794 415 2803 415 2812 415 2820 415 2829 415 2837 415 2845 415 2854 416 2862 417 2868 418 2874 419 2881 419 2887 420 2896 421 2905 422 2914 423 2924 423 2934 423 2944 423 2953 424 2962 424 2970 424 2979 424 2988 424 2997 424 3007 424 3017 424 3028 424 3038 423 3048 423 3057 423 3067 424 3076 424 3083 424 3090 424 3098 425 3104 425 3114 425 3122 425 3130 424 3138 424 3144 424 3151 424 3157 424 3164 424 3171 423 3178 422 3187 421 3195 420 3204 419 3212 418 3220 418 3228 418 3236 418 3243 418 3251 418 3259 418 3266 418 3273 418 3279 418 3283 419 3287 419 3289 420 3291 420 3291 420 3291 420 3291 420"></polyline><polyline points="2890 565 2889 564 2888 564 2888 563 2886 563 2884 563 2881 563 2877 565 2873 568 2869 572 2866 576 2864 580 2863 585 2863 589 2865 593 2868 598 2872 602 2876 605 2881 607 2886 608 2891 609 2895 609 2900 608 2905 606 2909 603 2914 600 2917 597"></polyline><polyline points="2935 571 2931 571 2927 572 2924 574 2922 577 2920 581 2919 585 2918 589 2918 592 2919 595 2920 597 2920 598 2921 599 2923 599 2925 597 2929 595 2932 591 2935 588 2938 585 2939 583 2940 582 2941 581 2941 581 2941 581 2942 582 2943 584 2944 587 2945 590 2947 593 2948 595 2949 597 2951 597 2952 597 2954 596 2955 595"></polyline><polyline points="2959 574 2960 576 2961 580 2962 585 2963 588 2964 591 2964 592 2965 593 2965 593 2966 592 2967 590 2970 586 2972 584 2974 581 2975 578 2976 577 2978 576 2978 575 2979 575 2980 576 2981 578 2983 581 2984 584 2985 587 2985 588 2985 589 2985 589 2985 589 2985 589 2986 588 2988 586 2990 583 2992 580 2993 578 2994 577 2994 577 2994 577 2995 577 2995 577 2997 578 2998 580 3000 581 3002 583 3005 585 3007 586 3009 586"></polyline><polyline points="3016 586 3016 586 3017 585 3018 583 3020 581 3021 578 3022 575 3023 573 3024 572 3024 571 3024 571 3024 571 3024 571 3024 571 3023 572 3021 574 3019 577 3018 580 3018 582 3018 585 3020 587 3021 588 3023 588 3025 589 3026 589 3027 588 3028 587 3030 586 3031 583 3032 580 3034 577 3035 574 3036 571 3037 569 3038 567 3040 566 3042 565 3045 565"></polyline><polyline points="3062 566 3060 567 3057 570 3055 573 3053 576 3051 578 3051 579 3052 580 3053 581 3054 581 3055 581 3057 581 3059 580 3062 579 3064 578 3066 578 3069 578 3072 578 3076 580 3080 581 3084 583 3088 585 3092 585 3096 585 3099 584"></polyline><polyline points="2870 659 2870 659 2870 659 2870 659 2870 659 2870 659 2870 659 2870 659 2870 659 2870 658 2870 658 2870 660 2870 664 2871 668 2871 674 2872 680 2872 687 2873 693 2873 699 2873 704 2873 708 2873 710 2873 712 2873 712 2873 713 2873 713 2873 713 2873 713 2873 713 2873 713 2873 711 2873 708 2872 703 2872 698 2871 693 2870 687 2870 680 2870 674 2870 668 2870 662 2870 658 2871 655 2871 653 2871 652 2872 651 2873 651 2875 651 2878 652 2882 654 2886 656 2890 658 2893 660 2896 661 2898 662 2899 663 2900 665 2900 668 2900 671 2898 674 2895 678 2891 681 2888 684 2886 687 2883 689 2882 692 2881 695 2880 698 2880 702 2881 705 2883 708 2885 710 2888 712 2890 714 2892 714 2894 715 2895 716 2895 716 2896 716 2897 717"></polyline><polyline points="2927 699 2924 699 2921 699 2918 700 2915 702 2913 704 2911 705 2910 707 2910 709 2910 711 2910 714 2912 715 2914 717 2917 717 2920 717 2923 717 2926 716 2929 714 2932 711 2935 707 2937 704 2939 701 2939 698 2939 697 2938 697 2937 697 2935 697 2934 697 2933 697 2933 698"></polyline><polyline points="2959 696 2957 696 2954 697 2951 700 2949 702 2948 705 2948 707 2949 709 2952 710 2955 711 2958 711 2961 710 2965 709 2968 707 2973 705 2976 702 2978 700"></polyline><polyline points="2986 650 2986 654 2986 661 2986 669 2986 677 2985 684 2985 691 2985 696 2985 699 2985 701 2985 702 2985 702 2985 702 2985 701 2985 699 2986 696 2988 692 2990 689 2992 685 2993 682 2995 680 2997 677 2998 675 3000 672 3002 670 3002 669 3003 668 3003 668 3003 668 3003 668 3002 670 3001 673 3000 677 2999 682 2998 687 2998 691 2999 694 3003 697 3008 697 3015 697 3021 696 3027 694"></polyline><polyline points="3033 691 3033 691 3033 691 3033 691 3033 690 3033 690 3033 688 3033 687 3033 685 3033 684 3033 683 3033 683 3033 683 3032 683 3031 683 3029 685 3027 687 3026 689 3025 693 3024 695 3024 699 3024 702 3026 704 3028 705 3030 706 3032 705 3035 703 3038 700"></polyline><polyline points="3067 646 3067 652 3066 659 3066 666 3066 675 3066 682 3066 689 3067 693 3068 696 3068 697 3069 697 3069 695"></polyline><polyline points="3065 674 3067 673 3071 672 3075 671 3078 670 3082 670 3084 670 3085 670 3086 672"></polyline><polyline points="2786 767 2789 767 2793 768 2798 769 2807 770 2817 771 2829 772 2842 772 2857 773 2872 773 2887 773 2902 774 2918 774 2932 774 2946 774 2959 775 2972 775 2984 775 2996 775 3008 775 3021 775 3033 775 3044 775 3055 774 3064 774 3072 773 3081 772 3089 770 3101 769 3111 768 3122 766 3132 765 3141 765 3149 765 3157 765 3164 765 3171 765 3178 765 3183 764 3186 763 3188 762 3189 760"></polyline><polyline points="3291 425 3291 425 3291 425 3292 428 3293 432 3295 439 3296 448 3297 458 3298 471 3299 485 3300 500 3300 516 3301 531 3301 545 3301 558 3300 570 3299 582 3299 592 3298 602 3297 613 3296 623 3296 633 3295 644 3294 654 3293 664 3293 673 3293 681 3293 687 3293 693 3294 698 3295 703 3296 710 3298 716 3299 722 3300 727 3300 733 3300 739 3299 745 3298 751 3298 755 3297 758 3297 759 3297 760 3296 760 3295 759 3292 757"></polyline><polyline points="2843 556 2843 556 2843 556 2843 556 2843 556 2843 556 2843 556 2843 555 2843 555 2842 555 2842 555 2842 555 2842 555 2842 555 2842 555 2842 557 2843 560 2844 564 2845 567 2846 571 2847 575 2848 579 2849 584 2850 589 2851 595 2852 601 2854 607 2855 612 2856 617 2858 621 2859 625 2860 628 2860 631 2861 633 2861 635 2862 636 2862 638 2862 638 2862 639 2862 639 2862 639 2862 639 2862 639 2862 639 2862 639 2862 639 2862 640 2862 640 2863 640 2863 640 2865 640 2868 640 2871 640 2874 640 2878 639 2882 639 2886 638 2891 638 2897 637 2903 637 2909 636 2916 635 2923 634 2930 634 2938 633 2945 633 2952 632 2959 632 2965 632 2972 631 2979 631 2986 631 2994 630 3001 630 3009 629 3017 629 3024 628 3031 628 3037 628 3043 628 3049 628 3055 627 3061 626 3066 624 3071 623 3077 622 3083 620 3091 618 3099 617 3105 616 3111 615 3116 615 3119 614 3122 614 3124 614 3126 613"></polyline><polyline points="2846 545 2849 545 2852 545 2857 545 2863 545 2870 545 2878 545 2886 545 2895 544 2905 543 2912 542 2920 541 2929 541 2937 540 2949 539 2961 538 2972 538 2984 537 2995 537 3006 537 3015 537 3024 537 3032 537 3039 537 3045 537 3051 537 3057 536 3061 536 3066 536 3069 536 3073 536 3077 536 3081 537 3086 537 3090 537 3094 537 3098 537 3103 538 3108 538 3114 538 3119 539 3123 539 3127 540 3131 541 3135 541 3138 542 3140 542 3141 543 3142 543 3142 543 3142 543 3142 543 3142 543 3142 543 3142 543 3143 543 3143 543 3143 543 3143 543 3143 543 3143 544 3144 545 3144 547 3144 551 3144 555 3144 560 3143 566 3142 572 3142 579 3141 585 3141 591 3141 597 3141 602 3141 607 3141 611 3140 614 3140 617 3140 618 3140 618"></polyline><polyline points="2860 633 2860 633 2860 633 2860 633 2860 633 2861 633 2861 634 2862 636 2863 638 2864 640 2864 643 2865 646 2865 650 2865 654 2865 659 2865 663 2865 668 2865 673 2865 678 2865 682 2866 687 2866 691 2867 696 2867 701 2867 706 2867 710 2866 714 2866 717 2865 720 2865 722 2864 725 2864 728 2863 730 2863 732 2863 733 2863 734 2863 736 2863 737 2863 739 2863 742 2863 743 2863 745 2863 746 2863 748 2863 749 2863 749 2864 750 2864 751 2864 751 2864 752 2864 752 2864 752 2864 752 2865 752 2865 753 2865 753 2866 753 2867 754 2869 754 2872 754 2876 754 2881 754 2886 754 2892 754 2899 753 2906 752 2913 752 2921 751 2930 751 2939 750 2949 748 2959 747 2968 744 2978 742 2986 740 2993 739 2999 738 3004 737 3010 736 3018 735 3026 733 3034 732 3041 732 3048 732 3055 732 3062 732 3068 732 3074 731 3080 730 3085 729 3090 728 3094 727 3097 727 3098 726 3099 726 3100 726 3101 725 3101 723 3102 722"></polyline><polyline points="3139 613 3139 612 3139 610 3140 608 3140 607 3140 606 3140 606 3140 606 3140 606 3140 606 3140 606 3140 607 3140 608 3140 611 3140 615 3140 620 3140 625 3140 630 3140 636 3140 642 3139 648 3139 654 3138 660 3138 665 3138 669 3138 673 3138 677 3138 682 3138 686 3137 690 3137 694 3136 698 3136 702 3135 706 3134 710 3133 713 3133 716 3132 720 3131 723 3131 726 3130 728 3130 729 3130 730 3130 730 3130 731 3130 732 3130 734 3130 734 3130 735 3130 735"></polyline></g></svg>